<mxfile host="65bd71144e">
    <diagram name="jalon_1" id="zzVEKxx2Q4tBxUzK9szl">
        <mxGraphModel dx="933" dy="416" grid="1" gridSize="10" guides="1" tooltips="1" connect="1" arrows="1" fold="1" page="1" pageScale="1" pageWidth="827" pageHeight="1169" math="0" shadow="0">
            <root>
                <mxCell id="YnkZOrbqL0In9IcPwO2X-0"/>
                <mxCell id="YnkZOrbqL0In9IcPwO2X-1" parent="YnkZOrbqL0In9IcPwO2X-0"/>
                <mxCell id="YnkZOrbqL0In9IcPwO2X-3" style="edgeStyle=none;html=1;strokeWidth=5;entryX=0.5;entryY=0;entryDx=0;entryDy=0;exitX=0.5;exitY=1;exitDx=0;exitDy=0;" edge="1" parent="YnkZOrbqL0In9IcPwO2X-1" source="YnkZOrbqL0In9IcPwO2X-4" target="YnkZOrbqL0In9IcPwO2X-33">
                    <mxGeometry relative="1" as="geometry">
                        <mxPoint x="545" y="270" as="sourcePoint"/>
                    </mxGeometry>
                </mxCell>
                <mxCell id="YnkZOrbqL0In9IcPwO2X-4" value="&lt;b&gt;Carte (couleur, hauteur)&lt;/b&gt;" style="swimlane;fontStyle=0;align=center;verticalAlign=top;childLayout=stackLayout;horizontal=1;startSize=26;horizontalStack=0;resizeParent=1;resizeLast=0;collapsible=1;marginBottom=0;rounded=0;shadow=0;strokeWidth=1;html=1;whiteSpace=wrap;" vertex="1" parent="YnkZOrbqL0In9IcPwO2X-1">
                    <mxGeometry x="440" y="50" width="210" height="220" as="geometry">
                        <mxRectangle x="130" y="380" width="160" height="26" as="alternateBounds"/>
                    </mxGeometry>
                </mxCell>
                <mxCell id="YnkZOrbqL0In9IcPwO2X-5" value="self.couleur &lt;span style=&quot;font-weight: normal;&quot;&gt;(str : c, d, h, s)&lt;/span&gt;" style="text;align=left;verticalAlign=top;spacingLeft=4;spacingRight=4;overflow=hidden;rotatable=0;points=[[0,0.5],[1,0.5]];portConstraint=eastwest;fontStyle=1;html=1;whiteSpace=wrap;" vertex="1" parent="YnkZOrbqL0In9IcPwO2X-4">
                    <mxGeometry y="26" width="210" height="26" as="geometry"/>
                </mxCell>
                <mxCell id="YnkZOrbqL0In9IcPwO2X-6" value="self.hauteur &lt;span style=&quot;font-weight: normal;&quot;&gt;(str : 1,2,..,10,J,Q,K)&lt;/span&gt;" style="text;align=left;verticalAlign=top;spacingLeft=4;spacingRight=4;overflow=hidden;rotatable=0;points=[[0,0.5],[1,0.5]];portConstraint=eastwest;fontStyle=1;html=1;whiteSpace=wrap;" vertex="1" parent="YnkZOrbqL0In9IcPwO2X-4">
                    <mxGeometry y="52" width="210" height="26" as="geometry"/>
                </mxCell>
                <mxCell id="YnkZOrbqL0In9IcPwO2X-7" value="&lt;b&gt;self.valeur&lt;/b&gt; (int) nb de points" style="text;align=left;verticalAlign=top;spacingLeft=4;spacingRight=4;overflow=hidden;rotatable=0;points=[[0,0.5],[1,0.5]];portConstraint=eastwest;html=1;whiteSpace=wrap;" vertex="1" parent="YnkZOrbqL0In9IcPwO2X-4">
                    <mxGeometry y="78" width="210" height="26" as="geometry"/>
                </mxCell>
                <mxCell id="YnkZOrbqL0In9IcPwO2X-8" value="&lt;b&gt;self.int_hauteur&lt;/b&gt; (int) 1 (As) : 13 (K)" style="text;align=left;verticalAlign=top;spacingLeft=4;spacingRight=4;overflow=hidden;rotatable=0;points=[[0,0.5],[1,0.5]];portConstraint=eastwest;html=1;whiteSpace=wrap;" vertex="1" parent="YnkZOrbqL0In9IcPwO2X-4">
                    <mxGeometry y="104" width="210" height="26" as="geometry"/>
                </mxCell>
                <mxCell id="YnkZOrbqL0In9IcPwO2X-9" value="&lt;b&gt;self.id&lt;/b&gt; (str) type 'c7'" style="text;align=left;verticalAlign=top;spacingLeft=4;spacingRight=4;overflow=hidden;rotatable=0;points=[[0,0.5],[1,0.5]];portConstraint=eastwest;html=1;whiteSpace=wrap;" vertex="1" parent="YnkZOrbqL0In9IcPwO2X-4">
                    <mxGeometry y="130" width="210" height="26" as="geometry"/>
                </mxCell>
                <mxCell id="YnkZOrbqL0In9IcPwO2X-10" value="&lt;b&gt;self.dessin&lt;/b&gt; (code Unicode)" style="text;align=left;verticalAlign=top;spacingLeft=4;spacingRight=4;overflow=hidden;rotatable=0;points=[[0,0.5],[1,0.5]];portConstraint=eastwest;html=1;whiteSpace=wrap;" vertex="1" parent="YnkZOrbqL0In9IcPwO2X-4">
                    <mxGeometry y="156" width="210" height="26" as="geometry"/>
                </mxCell>
                <mxCell id="YnkZOrbqL0In9IcPwO2X-11" value="" style="line;html=1;strokeWidth=1;align=left;verticalAlign=middle;spacingTop=-1;spacingLeft=3;spacingRight=3;rotatable=0;labelPosition=right;points=[];portConstraint=eastwest;whiteSpace=wrap;" vertex="1" parent="YnkZOrbqL0In9IcPwO2X-4">
                    <mxGeometry y="182" width="210" height="8" as="geometry"/>
                </mxCell>
                <mxCell id="YnkZOrbqL0In9IcPwO2X-12" value="&lt;b&gt;__str__()&lt;/b&gt;" style="text;align=left;verticalAlign=top;spacingLeft=4;spacingRight=4;overflow=hidden;rotatable=0;points=[[0,0.5],[1,0.5]];portConstraint=eastwest;html=1;whiteSpace=wrap;" vertex="1" parent="YnkZOrbqL0In9IcPwO2X-4">
                    <mxGeometry y="190" width="210" height="26" as="geometry"/>
                </mxCell>
                <mxCell id="YnkZOrbqL0In9IcPwO2X-13" style="edgeStyle=none;html=1;entryX=1;entryY=0.5;entryDx=0;entryDy=0;strokeWidth=5;exitX=-0.002;exitY=0.15;exitDx=0;exitDy=0;exitPerimeter=0;" edge="1" parent="YnkZOrbqL0In9IcPwO2X-1" source="YnkZOrbqL0In9IcPwO2X-39" target="YnkZOrbqL0In9IcPwO2X-18">
                    <mxGeometry relative="1" as="geometry">
                        <mxPoint x="630" y="540" as="sourcePoint"/>
                    </mxGeometry>
                </mxCell>
                <mxCell id="YnkZOrbqL0In9IcPwO2X-14" value="&lt;b&gt;Tapis (contenu)&lt;/b&gt;" style="swimlane;fontStyle=0;align=center;verticalAlign=top;childLayout=stackLayout;horizontal=1;startSize=26;horizontalStack=0;resizeParent=1;resizeLast=0;collapsible=1;marginBottom=0;rounded=0;shadow=0;strokeWidth=1;html=1;whiteSpace=wrap;" vertex="1" parent="YnkZOrbqL0In9IcPwO2X-1">
                    <mxGeometry x="40" y="410" width="220" height="260" as="geometry">
                        <mxRectangle x="130" y="380" width="160" height="26" as="alternateBounds"/>
                    </mxGeometry>
                </mxCell>
                <mxCell id="YnkZOrbqL0In9IcPwO2X-15" value="&lt;b&gt;self.contenu&lt;/b&gt;&amp;nbsp;=&amp;gt; liste d'objets Carte" style="text;align=left;verticalAlign=top;spacingLeft=4;spacingRight=4;overflow=hidden;rotatable=0;points=[[0,0.5],[1,0.5]];portConstraint=eastwest;fontStyle=0;html=1;whiteSpace=wrap;" vertex="1" parent="YnkZOrbqL0In9IcPwO2X-14">
                    <mxGeometry y="26" width="220" height="26" as="geometry"/>
                </mxCell>
                <mxCell id="YnkZOrbqL0In9IcPwO2X-16" value="" style="line;html=1;strokeWidth=1;align=left;verticalAlign=middle;spacingTop=-1;spacingLeft=3;spacingRight=3;rotatable=0;labelPosition=right;points=[];portConstraint=eastwest;whiteSpace=wrap;" vertex="1" parent="YnkZOrbqL0In9IcPwO2X-14">
                    <mxGeometry y="52" width="220" height="8" as="geometry"/>
                </mxCell>
                <mxCell id="YnkZOrbqL0In9IcPwO2X-17" value="&lt;b&gt;tapis_vide ()&lt;/b&gt; : renvoie True si Tapis est vide, sinon False" style="text;align=left;verticalAlign=top;spacingLeft=4;spacingRight=4;overflow=hidden;rotatable=0;points=[[0,0.5],[1,0.5]];portConstraint=eastwest;html=1;whiteSpace=wrap;" vertex="1" parent="YnkZOrbqL0In9IcPwO2X-14">
                    <mxGeometry y="60" width="220" height="40" as="geometry"/>
                </mxCell>
                <mxCell id="YnkZOrbqL0In9IcPwO2X-18" value="&lt;b&gt;get_premiere ()&lt;/b&gt; : renvoie la 1ère carte du contenu&amp;nbsp;(sans l'enlever)" style="text;align=left;verticalAlign=top;spacingLeft=4;spacingRight=4;overflow=hidden;rotatable=0;points=[[0,0.5],[1,0.5]];portConstraint=eastwest;html=1;whiteSpace=wrap;" vertex="1" parent="YnkZOrbqL0In9IcPwO2X-14">
                    <mxGeometry y="100" width="220" height="40" as="geometry"/>
                </mxCell>
                <mxCell id="YnkZOrbqL0In9IcPwO2X-19" value="&lt;b&gt;empile (x) &lt;/b&gt;: x est un objet Carte que l'on empile sur le tapis" style="text;align=left;verticalAlign=top;spacingLeft=4;spacingRight=4;overflow=hidden;rotatable=0;points=[[0,0.5],[1,0.5]];portConstraint=eastwest;html=1;whiteSpace=wrap;" vertex="1" parent="YnkZOrbqL0In9IcPwO2X-14">
                    <mxGeometry y="140" width="220" height="40" as="geometry"/>
                </mxCell>
                <mxCell id="YnkZOrbqL0In9IcPwO2X-20" value="&lt;b&gt;depile () &lt;/b&gt;: supprime l'objet Carte situé sur le dessus du Tapis et le renvoie" style="text;align=left;verticalAlign=top;spacingLeft=4;spacingRight=4;overflow=hidden;rotatable=0;points=[[0,0.5],[1,0.5]];portConstraint=eastwest;html=1;whiteSpace=wrap;" vertex="1" parent="YnkZOrbqL0In9IcPwO2X-14">
                    <mxGeometry y="180" width="220" height="40" as="geometry"/>
                </mxCell>
                <mxCell id="YnkZOrbqL0In9IcPwO2X-21" value="&lt;b&gt;afficher ()&lt;/b&gt; : affiche 'tapis : ' et&lt;br&gt;la carte du dessus" style="text;align=left;verticalAlign=top;spacingLeft=4;spacingRight=4;overflow=hidden;rotatable=0;points=[[0,0.5],[1,0.5]];portConstraint=eastwest;html=1;whiteSpace=wrap;" vertex="1" parent="YnkZOrbqL0In9IcPwO2X-14">
                    <mxGeometry y="220" width="220" height="40" as="geometry"/>
                </mxCell>
                <mxCell id="YnkZOrbqL0In9IcPwO2X-33" value="&lt;b&gt;PaquetCartes (nb)&lt;/b&gt;" style="swimlane;fontStyle=0;align=center;verticalAlign=top;childLayout=stackLayout;horizontal=1;startSize=26;horizontalStack=0;resizeParent=1;resizeLast=0;collapsible=1;marginBottom=0;rounded=0;shadow=0;strokeWidth=1;html=1;whiteSpace=wrap;" vertex="1" parent="YnkZOrbqL0In9IcPwO2X-1">
                    <mxGeometry x="440" y="330" width="210" height="370" as="geometry">
                        <mxRectangle x="340" y="380" width="170" height="26" as="alternateBounds"/>
                    </mxGeometry>
                </mxCell>
                <mxCell id="YnkZOrbqL0In9IcPwO2X-34" value="self.nb_cartes" style="text;align=left;verticalAlign=top;spacingLeft=4;spacingRight=4;overflow=hidden;rotatable=0;points=[[0,0.5],[1,0.5]];portConstraint=eastwest;fontStyle=1;html=1;whiteSpace=wrap;" vertex="1" parent="YnkZOrbqL0In9IcPwO2X-33">
                    <mxGeometry y="26" width="210" height="24" as="geometry"/>
                </mxCell>
                <mxCell id="YnkZOrbqL0In9IcPwO2X-35" value="&lt;b&gt;self.cartes&amp;nbsp;&lt;/b&gt;" style="text;align=left;verticalAlign=top;spacingLeft=4;spacingRight=4;overflow=hidden;rotatable=0;points=[[0,0.5],[1,0.5]];portConstraint=eastwest;html=1;whiteSpace=wrap;" vertex="1" parent="YnkZOrbqL0In9IcPwO2X-33">
                    <mxGeometry y="50" width="210" height="24" as="geometry"/>
                </mxCell>
                <mxCell id="YnkZOrbqL0In9IcPwO2X-36" value="" style="line;html=1;strokeWidth=1;align=left;verticalAlign=middle;spacingTop=-1;spacingLeft=3;spacingRight=3;rotatable=0;labelPosition=right;points=[];portConstraint=eastwest;whiteSpace=wrap;" vertex="1" parent="YnkZOrbqL0In9IcPwO2X-33">
                    <mxGeometry y="74" width="210" height="8" as="geometry"/>
                </mxCell>
                <mxCell id="YnkZOrbqL0In9IcPwO2X-37" value="&lt;div style=&quot;text-align: justify;&quot;&gt;&lt;span style=&quot;background-color: initial;&quot;&gt;&lt;b&gt;battre ()&lt;/b&gt; : mélange le paquet&amp;nbsp;&lt;/span&gt;&lt;span style=&quot;background-color: initial;&quot;&gt;de façon aléatoire&lt;/span&gt;&lt;/div&gt;" style="text;align=left;verticalAlign=top;spacingLeft=4;spacingRight=4;overflow=hidden;rotatable=0;points=[[0,0.5],[1,0.5]];portConstraint=eastwest;fontStyle=0;html=1;whiteSpace=wrap;" vertex="1" parent="YnkZOrbqL0In9IcPwO2X-33">
                    <mxGeometry y="82" width="210" height="48" as="geometry"/>
                </mxCell>
                <mxCell id="YnkZOrbqL0In9IcPwO2X-38" value="&lt;div style=&quot;text-align: justify;&quot;&gt;&lt;b style=&quot;background-color: initial;&quot;&gt;couper () &lt;/b&gt;&lt;span style=&quot;background-color: initial;&quot;&gt;:&amp;nbsp;simule le fait de couper&amp;nbsp;&lt;/span&gt;&lt;span style=&quot;background-color: initial;&quot;&gt;le paquet en 2 à un endroit aléatoire&amp;nbsp;&lt;/span&gt;&lt;span style=&quot;background-color: initial;&quot;&gt;puis de permuter les 2 parties&lt;/span&gt;&lt;/div&gt;" style="text;align=left;verticalAlign=top;spacingLeft=4;spacingRight=4;overflow=hidden;rotatable=0;points=[[0,0.5],[1,0.5]];portConstraint=eastwest;html=1;whiteSpace=wrap;" vertex="1" parent="YnkZOrbqL0In9IcPwO2X-33">
                    <mxGeometry y="130" width="210" height="60" as="geometry"/>
                </mxCell>
                <mxCell id="YnkZOrbqL0In9IcPwO2X-39" value="&lt;b&gt;est_vide ()&lt;/b&gt; : renvoie True si le paquet&amp;nbsp;est vide,&amp;nbsp;sinon False" style="text;align=left;verticalAlign=top;spacingLeft=4;spacingRight=4;overflow=hidden;rotatable=0;points=[[0,0.5],[1,0.5]];portConstraint=eastwest;html=1;whiteSpace=wrap;" vertex="1" parent="YnkZOrbqL0In9IcPwO2X-33">
                    <mxGeometry y="190" width="210" height="50" as="geometry"/>
                </mxCell>
                <mxCell id="YnkZOrbqL0In9IcPwO2X-40" value="&lt;b&gt;remplir (cartes) &lt;/b&gt;: cartes = liste d'objets Carte, ajoute les cartes de &lt;b&gt;cartes&lt;/b&gt;&amp;nbsp;dans le paquet" style="text;align=left;verticalAlign=top;spacingLeft=4;spacingRight=4;overflow=hidden;rotatable=0;points=[[0,0.5],[1,0.5]];portConstraint=eastwest;html=1;whiteSpace=wrap;" vertex="1" parent="YnkZOrbqL0In9IcPwO2X-33">
                    <mxGeometry y="240" width="210" height="60" as="geometry"/>
                </mxCell>
                <mxCell id="YnkZOrbqL0In9IcPwO2X-41" value="&lt;b&gt;tirer ()&lt;/b&gt;&amp;nbsp;&lt;b&gt;&amp;nbsp;&lt;/b&gt;:&amp;nbsp;&lt;span style=&quot;background-color: initial;&quot;&gt;renvoie la carte tirée au sommet du paquet&lt;br&gt;&lt;/span&gt;" style="text;align=left;verticalAlign=top;spacingLeft=4;spacingRight=4;overflow=hidden;rotatable=0;points=[[0,0.5],[1,0.5]];portConstraint=eastwest;html=1;whiteSpace=wrap;" vertex="1" parent="YnkZOrbqL0In9IcPwO2X-33">
                    <mxGeometry y="300" width="210" height="40" as="geometry"/>
                </mxCell>
                <mxCell id="YnkZOrbqL0In9IcPwO2X-42" value="&lt;b&gt;getCartes () :&lt;/b&gt; getter =&amp;gt; liste de Carte" style="text;align=left;verticalAlign=top;spacingLeft=4;spacingRight=4;overflow=hidden;rotatable=0;points=[[0,0.5],[1,0.5]];portConstraint=eastwest;html=1;whiteSpace=wrap;" vertex="1" parent="YnkZOrbqL0In9IcPwO2X-33">
                    <mxGeometry y="340" width="210" height="24" as="geometry"/>
                </mxCell>
            </root>
        </mxGraphModel>
    </diagram>
    <diagram id="C5RBs43oDa-KdzZeNtuy" name="jalon_2">
        <mxGraphModel dx="1983" dy="885" grid="1" gridSize="10" guides="1" tooltips="1" connect="1" arrows="1" fold="1" page="1" pageScale="1" pageWidth="827" pageHeight="1169" math="0" shadow="0">
            <root>
                <mxCell id="WIyWlLk6GJQsqaUBKTNV-0"/>
                <mxCell id="WIyWlLk6GJQsqaUBKTNV-1" parent="WIyWlLk6GJQsqaUBKTNV-0"/>
                <mxCell id="aMJ-iunlC56PZOkoWYXN-65" style="edgeStyle=none;html=1;exitX=0.5;exitY=1;exitDx=0;exitDy=0;entryX=0.5;entryY=0;entryDx=0;entryDy=0;strokeWidth=5;" parent="WIyWlLk6GJQsqaUBKTNV-1" source="38" target="4EVmc5m1H9hbaN7e_XOD-63" edge="1">
                    <mxGeometry relative="1" as="geometry">
                        <mxPoint x="824" y="628" as="sourcePoint"/>
                        <mxPoint x="680" y="780" as="targetPoint"/>
                    </mxGeometry>
                </mxCell>
                <mxCell id="62" style="edgeStyle=none;html=1;exitX=0.5;exitY=1;exitDx=0;exitDy=0;strokeWidth=5;" parent="WIyWlLk6GJQsqaUBKTNV-1" source="29" target="38" edge="1">
                    <mxGeometry relative="1" as="geometry"/>
                </mxCell>
                <mxCell id="29" value="&lt;b&gt;Carte (couleur, hauteur)&lt;/b&gt;" style="swimlane;fontStyle=0;align=center;verticalAlign=top;childLayout=stackLayout;horizontal=1;startSize=26;horizontalStack=0;resizeParent=1;resizeLast=0;collapsible=1;marginBottom=0;rounded=0;shadow=0;strokeWidth=1;html=1;whiteSpace=wrap;" parent="WIyWlLk6GJQsqaUBKTNV-1" vertex="1">
                    <mxGeometry x="720" width="210" height="220" as="geometry">
                        <mxRectangle x="130" y="380" width="160" height="26" as="alternateBounds"/>
                    </mxGeometry>
                </mxCell>
                <mxCell id="30" value="self.couleur &lt;span style=&quot;font-weight: normal;&quot;&gt;(str : c, d, h, s)&lt;/span&gt;" style="text;align=left;verticalAlign=top;spacingLeft=4;spacingRight=4;overflow=hidden;rotatable=0;points=[[0,0.5],[1,0.5]];portConstraint=eastwest;fontStyle=1;html=1;whiteSpace=wrap;" parent="29" vertex="1">
                    <mxGeometry y="26" width="210" height="26" as="geometry"/>
                </mxCell>
                <mxCell id="31" value="self.hauteur &lt;span style=&quot;font-weight: normal;&quot;&gt;(str : 1,2,..,10,J,Q,K)&lt;/span&gt;" style="text;align=left;verticalAlign=top;spacingLeft=4;spacingRight=4;overflow=hidden;rotatable=0;points=[[0,0.5],[1,0.5]];portConstraint=eastwest;fontStyle=1;html=1;whiteSpace=wrap;" parent="29" vertex="1">
                    <mxGeometry y="52" width="210" height="26" as="geometry"/>
                </mxCell>
                <mxCell id="32" value="&lt;b&gt;self.valeur&lt;/b&gt; (int) nb de points" style="text;align=left;verticalAlign=top;spacingLeft=4;spacingRight=4;overflow=hidden;rotatable=0;points=[[0,0.5],[1,0.5]];portConstraint=eastwest;html=1;whiteSpace=wrap;" parent="29" vertex="1">
                    <mxGeometry y="78" width="210" height="26" as="geometry"/>
                </mxCell>
                <mxCell id="33" value="&lt;b&gt;self.int_hauteur&lt;/b&gt; (int) 1 (As) : 13 (K)" style="text;align=left;verticalAlign=top;spacingLeft=4;spacingRight=4;overflow=hidden;rotatable=0;points=[[0,0.5],[1,0.5]];portConstraint=eastwest;html=1;whiteSpace=wrap;" parent="29" vertex="1">
                    <mxGeometry y="104" width="210" height="26" as="geometry"/>
                </mxCell>
                <mxCell id="34" value="&lt;b&gt;self.id&lt;/b&gt; (str) type 'c7'" style="text;align=left;verticalAlign=top;spacingLeft=4;spacingRight=4;overflow=hidden;rotatable=0;points=[[0,0.5],[1,0.5]];portConstraint=eastwest;html=1;whiteSpace=wrap;" parent="29" vertex="1">
                    <mxGeometry y="130" width="210" height="26" as="geometry"/>
                </mxCell>
                <mxCell id="35" value="&lt;b&gt;self.dessin&lt;/b&gt; (code Unicode)" style="text;align=left;verticalAlign=top;spacingLeft=4;spacingRight=4;overflow=hidden;rotatable=0;points=[[0,0.5],[1,0.5]];portConstraint=eastwest;html=1;whiteSpace=wrap;" parent="29" vertex="1">
                    <mxGeometry y="156" width="210" height="26" as="geometry"/>
                </mxCell>
                <mxCell id="36" value="" style="line;html=1;strokeWidth=1;align=left;verticalAlign=middle;spacingTop=-1;spacingLeft=3;spacingRight=3;rotatable=0;labelPosition=right;points=[];portConstraint=eastwest;whiteSpace=wrap;" parent="29" vertex="1">
                    <mxGeometry y="182" width="210" height="8" as="geometry"/>
                </mxCell>
                <mxCell id="37" value="&lt;b&gt;__str__()&lt;/b&gt;" style="text;align=left;verticalAlign=top;spacingLeft=4;spacingRight=4;overflow=hidden;rotatable=0;points=[[0,0.5],[1,0.5]];portConstraint=eastwest;html=1;whiteSpace=wrap;" parent="29" vertex="1">
                    <mxGeometry y="190" width="210" height="26" as="geometry"/>
                </mxCell>
                <mxCell id="63" style="edgeStyle=none;html=1;entryX=0.5;entryY=0;entryDx=0;entryDy=0;strokeWidth=5;exitX=0.5;exitY=1;exitDx=0;exitDy=0;" parent="WIyWlLk6GJQsqaUBKTNV-1" source="38" target="47" edge="1">
                    <mxGeometry relative="1" as="geometry">
                        <mxPoint x="830" y="730" as="sourcePoint"/>
                    </mxGeometry>
                </mxCell>
                <mxCell id="47" value="&lt;b&gt;Tapis (contenu)&lt;/b&gt;" style="swimlane;fontStyle=0;align=center;verticalAlign=top;childLayout=stackLayout;horizontal=1;startSize=26;horizontalStack=0;resizeParent=1;resizeLast=0;collapsible=1;marginBottom=0;rounded=0;shadow=0;strokeWidth=1;html=1;whiteSpace=wrap;" parent="WIyWlLk6GJQsqaUBKTNV-1" vertex="1">
                    <mxGeometry x="580" y="740" width="220" height="260" as="geometry">
                        <mxRectangle x="130" y="380" width="160" height="26" as="alternateBounds"/>
                    </mxGeometry>
                </mxCell>
                <mxCell id="48" value="&lt;b&gt;self.contenu&lt;/b&gt;&amp;nbsp;=&amp;gt; liste d'objets Carte" style="text;align=left;verticalAlign=top;spacingLeft=4;spacingRight=4;overflow=hidden;rotatable=0;points=[[0,0.5],[1,0.5]];portConstraint=eastwest;fontStyle=0;html=1;whiteSpace=wrap;" parent="47" vertex="1">
                    <mxGeometry y="26" width="220" height="26" as="geometry"/>
                </mxCell>
                <mxCell id="53" value="" style="line;html=1;strokeWidth=1;align=left;verticalAlign=middle;spacingTop=-1;spacingLeft=3;spacingRight=3;rotatable=0;labelPosition=right;points=[];portConstraint=eastwest;whiteSpace=wrap;" parent="47" vertex="1">
                    <mxGeometry y="52" width="220" height="8" as="geometry"/>
                </mxCell>
                <mxCell id="59" value="&lt;b&gt;tapis_vide ()&lt;/b&gt; : renvoie True si Tapis est vide, sinon False" style="text;align=left;verticalAlign=top;spacingLeft=4;spacingRight=4;overflow=hidden;rotatable=0;points=[[0,0.5],[1,0.5]];portConstraint=eastwest;html=1;whiteSpace=wrap;" parent="47" vertex="1">
                    <mxGeometry y="60" width="220" height="40" as="geometry"/>
                </mxCell>
                <mxCell id="56" value="&lt;b&gt;get_premiere ()&lt;/b&gt; : renvoie la 1ère carte du contenu&amp;nbsp;(sans l'enlever)" style="text;align=left;verticalAlign=top;spacingLeft=4;spacingRight=4;overflow=hidden;rotatable=0;points=[[0,0.5],[1,0.5]];portConstraint=eastwest;html=1;whiteSpace=wrap;" parent="47" vertex="1">
                    <mxGeometry y="100" width="220" height="40" as="geometry"/>
                </mxCell>
                <mxCell id="60" value="&lt;b&gt;empile (x) &lt;/b&gt;: x est un objet Carte que l'on empile sur le tapis" style="text;align=left;verticalAlign=top;spacingLeft=4;spacingRight=4;overflow=hidden;rotatable=0;points=[[0,0.5],[1,0.5]];portConstraint=eastwest;html=1;whiteSpace=wrap;" parent="47" vertex="1">
                    <mxGeometry y="140" width="220" height="40" as="geometry"/>
                </mxCell>
                <mxCell id="61" value="&lt;b&gt;depile () &lt;/b&gt;: supprime l'objet Carte situé sur le dessus du Tapis et le renvoie" style="text;align=left;verticalAlign=top;spacingLeft=4;spacingRight=4;overflow=hidden;rotatable=0;points=[[0,0.5],[1,0.5]];portConstraint=eastwest;html=1;whiteSpace=wrap;" parent="47" vertex="1">
                    <mxGeometry y="180" width="220" height="40" as="geometry"/>
                </mxCell>
                <mxCell id="58" value="&lt;b&gt;afficher ()&lt;/b&gt; : affiche 'tapis : ' et&lt;br&gt;la carte du dessus" style="text;align=left;verticalAlign=top;spacingLeft=4;spacingRight=4;overflow=hidden;rotatable=0;points=[[0,0.5],[1,0.5]];portConstraint=eastwest;html=1;whiteSpace=wrap;" parent="47" vertex="1">
                    <mxGeometry y="220" width="220" height="40" as="geometry"/>
                </mxCell>
                <mxCell id="4EVmc5m1H9hbaN7e_XOD-63" value="&lt;b&gt;Mainjoueur (cartes, position)&lt;/b&gt;" style="swimlane;fontStyle=0;align=center;verticalAlign=top;childLayout=stackLayout;horizontal=1;startSize=26;horizontalStack=0;resizeParent=1;resizeLast=0;collapsible=1;marginBottom=0;rounded=0;shadow=0;strokeWidth=1;html=1;whiteSpace=wrap;" parent="WIyWlLk6GJQsqaUBKTNV-1" vertex="1">
                    <mxGeometry x="860" y="740" width="220" height="420" as="geometry">
                        <mxRectangle x="340" y="380" width="170" height="26" as="alternateBounds"/>
                    </mxGeometry>
                </mxCell>
                <mxCell id="4EVmc5m1H9hbaN7e_XOD-64" value="self.cartes &lt;span style=&quot;font-weight: normal;&quot;&gt;(liste d'objets Carte)&lt;/span&gt;" style="text;align=left;verticalAlign=top;spacingLeft=4;spacingRight=4;overflow=hidden;rotatable=0;points=[[0,0.5],[1,0.5]];portConstraint=eastwest;fontStyle=1;html=1;whiteSpace=wrap;" parent="4EVmc5m1H9hbaN7e_XOD-63" vertex="1">
                    <mxGeometry y="26" width="220" height="24" as="geometry"/>
                </mxCell>
                <mxCell id="4EVmc5m1H9hbaN7e_XOD-65" value="&lt;b&gt;self.position &lt;/b&gt;(str: 'S', 'N', 'E' ou 'W')&lt;b&gt;&amp;nbsp;&lt;/b&gt;" style="text;align=left;verticalAlign=top;spacingLeft=4;spacingRight=4;overflow=hidden;rotatable=0;points=[[0,0.5],[1,0.5]];portConstraint=eastwest;html=1;whiteSpace=wrap;" parent="4EVmc5m1H9hbaN7e_XOD-63" vertex="1">
                    <mxGeometry y="50" width="220" height="24" as="geometry"/>
                </mxCell>
                <mxCell id="4EVmc5m1H9hbaN7e_XOD-66" value="" style="line;html=1;strokeWidth=1;align=left;verticalAlign=middle;spacingTop=-1;spacingLeft=3;spacingRight=3;rotatable=0;labelPosition=right;points=[];portConstraint=eastwest;whiteSpace=wrap;" parent="4EVmc5m1H9hbaN7e_XOD-63" vertex="1">
                    <mxGeometry y="74" width="220" height="8" as="geometry"/>
                </mxCell>
                <mxCell id="4EVmc5m1H9hbaN7e_XOD-69" value="&lt;b&gt;est_vide ()&lt;/b&gt; : renvoie True si la main est vide,&amp;nbsp;sinon False" style="text;align=left;verticalAlign=top;spacingLeft=4;spacingRight=4;overflow=hidden;rotatable=0;points=[[0,0.5],[1,0.5]];portConstraint=eastwest;html=1;whiteSpace=wrap;" parent="4EVmc5m1H9hbaN7e_XOD-63" vertex="1">
                    <mxGeometry y="82" width="220" height="48" as="geometry"/>
                </mxCell>
                <mxCell id="4EVmc5m1H9hbaN7e_XOD-67" value="&lt;div style=&quot;text-align: justify;&quot;&gt;&lt;span style=&quot;background-color: initial;&quot;&gt;&lt;b&gt;trier ()&lt;/b&gt; : modifie l'attribut cartes en le triant par hauteurs&lt;/span&gt;&lt;/div&gt;" style="text;align=left;verticalAlign=top;spacingLeft=4;spacingRight=4;overflow=hidden;rotatable=0;points=[[0,0.5],[1,0.5]];portConstraint=eastwest;fontStyle=0;html=1;whiteSpace=wrap;" parent="4EVmc5m1H9hbaN7e_XOD-63" vertex="1">
                    <mxGeometry y="130" width="220" height="48" as="geometry"/>
                </mxCell>
                <mxCell id="aMJ-iunlC56PZOkoWYXN-63" value="&lt;div style=&quot;text-align: justify;&quot;&gt;&lt;span style=&quot;background-color: initial;&quot;&gt;&lt;b&gt;afficher ()&lt;/b&gt; : affiche le jeu trié par hauteurs&lt;/span&gt;&lt;/div&gt;" style="text;align=left;verticalAlign=top;spacingLeft=4;spacingRight=4;overflow=hidden;rotatable=0;points=[[0,0.5],[1,0.5]];portConstraint=eastwest;fontStyle=0;html=1;whiteSpace=wrap;" parent="4EVmc5m1H9hbaN7e_XOD-63" vertex="1">
                    <mxGeometry y="178" width="220" height="40" as="geometry"/>
                </mxCell>
                <mxCell id="4EVmc5m1H9hbaN7e_XOD-70" value="&lt;b&gt;recevoir (carte) &lt;/b&gt;: ajoute cette carte à l'attribut cartes" style="text;align=left;verticalAlign=top;spacingLeft=4;spacingRight=4;overflow=hidden;rotatable=0;points=[[0,0.5],[1,0.5]];portConstraint=eastwest;html=1;whiteSpace=wrap;" parent="4EVmc5m1H9hbaN7e_XOD-63" vertex="1">
                    <mxGeometry y="218" width="220" height="42" as="geometry"/>
                </mxCell>
                <mxCell id="4EVmc5m1H9hbaN7e_XOD-71" value="&lt;b&gt;rejeter(id_carte)&lt;/b&gt;&amp;nbsp;&lt;b&gt;&amp;nbsp;&lt;/b&gt;:&amp;nbsp;&lt;span style=&quot;background-color: initial;&quot;&gt;supprime la carte du jeu et la renvoie comme objet Carte&lt;br&gt;&lt;/span&gt;" style="text;align=left;verticalAlign=top;spacingLeft=4;spacingRight=4;overflow=hidden;rotatable=0;points=[[0,0.5],[1,0.5]];portConstraint=eastwest;html=1;whiteSpace=wrap;" parent="4EVmc5m1H9hbaN7e_XOD-63" vertex="1">
                    <mxGeometry y="260" width="220" height="40" as="geometry"/>
                </mxCell>
                <mxCell id="4EVmc5m1H9hbaN7e_XOD-72" value="&lt;b&gt;classer_hauteurs () :&lt;/b&gt;&amp;nbsp;renvoie dico dont clefs = hauteurs et valeurs = liste des cartes de cette hauteur" style="text;align=left;verticalAlign=top;spacingLeft=4;spacingRight=4;overflow=hidden;rotatable=0;points=[[0,0.5],[1,0.5]];portConstraint=eastwest;html=1;whiteSpace=wrap;" parent="4EVmc5m1H9hbaN7e_XOD-63" vertex="1">
                    <mxGeometry y="300" width="220" height="60" as="geometry"/>
                </mxCell>
                <mxCell id="aMJ-iunlC56PZOkoWYXN-64" value="&lt;b&gt;classer_couleurs () :&lt;/b&gt;&amp;nbsp;renvoie dico dont clefs = couleurs et valeurs = liste des cartes de cette couleur" style="text;align=left;verticalAlign=top;spacingLeft=4;spacingRight=4;overflow=hidden;rotatable=0;points=[[0,0.5],[1,0.5]];portConstraint=eastwest;html=1;whiteSpace=wrap;" parent="4EVmc5m1H9hbaN7e_XOD-63" vertex="1">
                    <mxGeometry y="360" width="220" height="60" as="geometry"/>
                </mxCell>
                <mxCell id="38" value="&lt;b&gt;PaquetCartes (nb)&lt;/b&gt;" style="swimlane;fontStyle=0;align=center;verticalAlign=top;childLayout=stackLayout;horizontal=1;startSize=26;horizontalStack=0;resizeParent=1;resizeLast=0;collapsible=1;marginBottom=0;rounded=0;shadow=0;strokeWidth=1;html=1;whiteSpace=wrap;" parent="WIyWlLk6GJQsqaUBKTNV-1" vertex="1">
                    <mxGeometry x="720" y="300" width="210" height="370" as="geometry">
                        <mxRectangle x="340" y="380" width="170" height="26" as="alternateBounds"/>
                    </mxGeometry>
                </mxCell>
                <mxCell id="39" value="self.nb_cartes" style="text;align=left;verticalAlign=top;spacingLeft=4;spacingRight=4;overflow=hidden;rotatable=0;points=[[0,0.5],[1,0.5]];portConstraint=eastwest;fontStyle=1;html=1;whiteSpace=wrap;" parent="38" vertex="1">
                    <mxGeometry y="26" width="210" height="24" as="geometry"/>
                </mxCell>
                <mxCell id="40" value="&lt;b&gt;self.cartes&amp;nbsp;&lt;/b&gt;" style="text;align=left;verticalAlign=top;spacingLeft=4;spacingRight=4;overflow=hidden;rotatable=0;points=[[0,0.5],[1,0.5]];portConstraint=eastwest;html=1;whiteSpace=wrap;" parent="38" vertex="1">
                    <mxGeometry y="50" width="210" height="24" as="geometry"/>
                </mxCell>
                <mxCell id="41" value="" style="line;html=1;strokeWidth=1;align=left;verticalAlign=middle;spacingTop=-1;spacingLeft=3;spacingRight=3;rotatable=0;labelPosition=right;points=[];portConstraint=eastwest;whiteSpace=wrap;" parent="38" vertex="1">
                    <mxGeometry y="74" width="210" height="8" as="geometry"/>
                </mxCell>
                <mxCell id="42" value="&lt;div style=&quot;text-align: justify;&quot;&gt;&lt;span style=&quot;background-color: initial;&quot;&gt;&lt;b&gt;battre ()&lt;/b&gt; : mélange le paquet&amp;nbsp;&lt;/span&gt;&lt;span style=&quot;background-color: initial;&quot;&gt;de façon aléatoire&lt;/span&gt;&lt;/div&gt;" style="text;align=left;verticalAlign=top;spacingLeft=4;spacingRight=4;overflow=hidden;rotatable=0;points=[[0,0.5],[1,0.5]];portConstraint=eastwest;fontStyle=0;html=1;whiteSpace=wrap;" parent="38" vertex="1">
                    <mxGeometry y="82" width="210" height="48" as="geometry"/>
                </mxCell>
                <mxCell id="43" value="&lt;div style=&quot;text-align: justify;&quot;&gt;&lt;b style=&quot;background-color: initial;&quot;&gt;couper () &lt;/b&gt;&lt;span style=&quot;background-color: initial;&quot;&gt;:&amp;nbsp;simule le fait de couper&amp;nbsp;&lt;/span&gt;&lt;span style=&quot;background-color: initial;&quot;&gt;le paquet en 2 à un endroit aléatoire&amp;nbsp;&lt;/span&gt;&lt;span style=&quot;background-color: initial;&quot;&gt;puis de permuter les 2 parties&lt;/span&gt;&lt;/div&gt;" style="text;align=left;verticalAlign=top;spacingLeft=4;spacingRight=4;overflow=hidden;rotatable=0;points=[[0,0.5],[1,0.5]];portConstraint=eastwest;html=1;whiteSpace=wrap;" parent="38" vertex="1">
                    <mxGeometry y="130" width="210" height="60" as="geometry"/>
                </mxCell>
                <mxCell id="44" value="&lt;b&gt;est_vide ()&lt;/b&gt; : renvoie True si le paquet&amp;nbsp;est vide,&amp;nbsp;sinon False" style="text;align=left;verticalAlign=top;spacingLeft=4;spacingRight=4;overflow=hidden;rotatable=0;points=[[0,0.5],[1,0.5]];portConstraint=eastwest;html=1;whiteSpace=wrap;" parent="38" vertex="1">
                    <mxGeometry y="190" width="210" height="50" as="geometry"/>
                </mxCell>
                <mxCell id="45" value="&lt;b&gt;remplir (cartes) &lt;/b&gt;: cartes = liste d'objets Carte, ajoute les cartes de &lt;b&gt;cartes&lt;/b&gt;&amp;nbsp;dans le paquet" style="text;align=left;verticalAlign=top;spacingLeft=4;spacingRight=4;overflow=hidden;rotatable=0;points=[[0,0.5],[1,0.5]];portConstraint=eastwest;html=1;whiteSpace=wrap;" parent="38" vertex="1">
                    <mxGeometry y="240" width="210" height="60" as="geometry"/>
                </mxCell>
                <mxCell id="46" value="&lt;b&gt;tirer ()&lt;/b&gt;&amp;nbsp;&lt;b&gt;&amp;nbsp;&lt;/b&gt;:&amp;nbsp;&lt;span style=&quot;background-color: initial;&quot;&gt;renvoie la carte tirée au sommet du paquet&lt;br&gt;&lt;/span&gt;" style="text;align=left;verticalAlign=top;spacingLeft=4;spacingRight=4;overflow=hidden;rotatable=0;points=[[0,0.5],[1,0.5]];portConstraint=eastwest;html=1;whiteSpace=wrap;" parent="38" vertex="1">
                    <mxGeometry y="300" width="210" height="40" as="geometry"/>
                </mxCell>
                <mxCell id="57" value="&lt;b&gt;getCartes () :&lt;/b&gt; getter =&amp;gt; liste de Carte" style="text;align=left;verticalAlign=top;spacingLeft=4;spacingRight=4;overflow=hidden;rotatable=0;points=[[0,0.5],[1,0.5]];portConstraint=eastwest;html=1;whiteSpace=wrap;" parent="38" vertex="1">
                    <mxGeometry y="340" width="210" height="24" as="geometry"/>
                </mxCell>
            </root>
        </mxGraphModel>
    </diagram>
</mxfile>